<svg width="21" height="15" viewBox="0 0 21 15" fill="none" xmlns="http://www.w3.org/2000/svg">
<path d="M0.99844 14.9993L0.992676 0.999268L2.81086 0.998519L2.8147 10.3319L10.0874 10.3289L10.0844 2.86219L17.3571 2.8592C18.3571 2.85879 19.2133 3.22399 19.9257 3.95481C20.6381 4.68562 20.9946 5.56437 20.995 6.59103L20.9984 14.991L19.1803 14.9918L19.1791 12.1918L2.81547 12.1985L2.81662 14.9985L0.99844 14.9993ZM6.45068 9.39702C5.6931 9.39733 5.04905 9.12538 4.51852 8.58115C3.988 8.03692 3.72257 7.37592 3.72225 6.59814C3.72193 5.82037 3.98681 5.15915 4.51689 4.61448C5.04697 4.06982 5.6908 3.79733 6.44837 3.79702C7.20595 3.79671 7.85 4.06867 8.38053 4.61289C8.91105 5.15712 9.17648 5.81812 9.1768 6.5959C9.17712 7.37368 8.91224 8.0349 8.38216 8.57956C7.85208 9.12422 7.20825 9.39671 6.45068 9.39702ZM11.9056 10.3281L19.1783 10.3251L19.1768 6.59178C19.1766 6.07845 18.9985 5.63892 18.6426 5.2732C18.2861 4.9081 17.8578 4.72566 17.3578 4.72586L11.9033 4.72811L11.9056 10.3281ZM6.44991 7.53035C6.70749 7.53025 6.92351 7.44056 7.09798 7.26129C7.27185 7.08264 7.35873 6.86109 7.35862 6.59665C7.35851 6.3322 7.27145 6.11042 7.09743 5.93129C6.92282 5.75278 6.70672 5.66358 6.44914 5.66369C6.19157 5.66379 5.97554 5.75317 5.80107 5.93182C5.62721 6.11109 5.54033 6.33295 5.54044 6.5974C5.54054 6.86184 5.62761 7.08332 5.80162 7.26182C5.97624 7.44095 6.19233 7.53046 6.44991 7.53035Z" fill="#535353"/>
<path d="M0.99844 14.9993L0.992676 0.999268L2.81086 0.998519L2.8147 10.3319L10.0874 10.3289L10.0844 2.86219L17.3571 2.8592C18.3571 2.85879 19.2133 3.22399 19.9257 3.95481C20.6381 4.68562 20.9946 5.56437 20.995 6.59103L20.9984 14.991L19.1803 14.9918L19.1791 12.1918L2.81547 12.1985L2.81662 14.9985L0.99844 14.9993ZM6.45068 9.39702C5.6931 9.39733 5.04905 9.12538 4.51852 8.58115C3.988 8.03692 3.72257 7.37592 3.72225 6.59814C3.72193 5.82037 3.98681 5.15915 4.51689 4.61448C5.04697 4.06982 5.6908 3.79733 6.44837 3.79702C7.20595 3.79671 7.85 4.06867 8.38053 4.61289C8.91105 5.15712 9.17648 5.81812 9.1768 6.5959C9.17712 7.37368 8.91224 8.0349 8.38216 8.57956C7.85208 9.12422 7.20825 9.39671 6.45068 9.39702ZM11.9056 10.3281L19.1783 10.3251L19.1768 6.59178C19.1766 6.07845 18.9985 5.63892 18.6426 5.2732C18.2861 4.9081 17.8578 4.72566 17.3578 4.72586L11.9033 4.72811L11.9056 10.3281ZM6.44991 7.53035C6.70749 7.53025 6.92351 7.44056 7.09798 7.26129C7.27185 7.08264 7.35873 6.86109 7.35862 6.59665C7.35851 6.3322 7.27145 6.11042 7.09743 5.93129C6.92282 5.75278 6.70672 5.66358 6.44914 5.66369C6.19157 5.66379 5.97554 5.75317 5.80107 5.93182C5.62721 6.11109 5.54033 6.33295 5.54044 6.5974C5.54054 6.86184 5.62761 7.08332 5.80162 7.26182C5.97624 7.44095 6.19233 7.53046 6.44991 7.53035Z" fill="white" fill-opacity="0.4"/>
</svg>
