<svg width="50" height="50" viewBox="0 0 50 50" fill="none" xmlns="http://www.w3.org/2000/svg">
    <path
        d="M29.7362 29.0465L30.8413 30.1548H19.1588L20.2639 29.0465L20.5375 28.7721V28.3846V23.8717C20.5375 21.4169 21.8041 19.5698 23.8668 19.0796L24.5875 18.9084V18.1675V17.5538C24.5875 17.3199 24.7733 17.1375 25 17.1375C25.2268 17.1375 25.4125 17.3199 25.4125 17.5538V18.1675V18.9078L26.1326 19.0795C28.1876 19.5695 29.4625 21.4267 29.4625 23.8717V28.3846V28.7721L29.7362 29.0465Z"
        stroke-width="1.875" />
    <path
        d="M29.7362 29.0465L30.8413 30.1548H19.1588L20.2639 29.0465L20.5375 28.7721V28.3846V23.8717C20.5375 21.4169 21.8041 19.5698 23.8668 19.0796L24.5875 18.9084V18.1675V17.5538C24.5875 17.3199 24.7733 17.1375 25 17.1375C25.2268 17.1375 25.4125 17.3199 25.4125 17.5538V18.1675V18.9078L26.1326 19.0795C28.1876 19.5695 29.4625 21.4267 29.4625 23.8717V28.3846V28.7721L29.7362 29.0465Z"
        stroke-width="1.875" />
    <rect x="1" y="1" width="48" height="48" stroke-width="2" />
    <rect x="1" y="1" width="48" height="48" stroke-width="2" />
</svg>
