<svg width="26" height="30" viewBox="0 0 26 30" fill="none" xmlns="http://www.w3.org/2000/svg">
<path d="M23.2 3.40901H21.925V0.833252H19.375V3.40901H6.625V0.833252H4.075V3.40901H2.8C1.3975 3.40901 0.25 4.5681 0.25 5.98477V26.5908C0.25 28.0075 1.3975 29.1666 2.8 29.1666H23.2C24.6025 29.1666 25.75 28.0075 25.75 26.5908V5.98477C25.75 4.5681 24.6025 3.40901 23.2 3.40901ZM23.2 26.5908H2.8V9.8484H23.2V26.5908Z" fill="#535353"/>
<path d="M23.2 3.40901H21.925V0.833252H19.375V3.40901H6.625V0.833252H4.075V3.40901H2.8C1.3975 3.40901 0.25 4.5681 0.25 5.98477V26.5908C0.25 28.0075 1.3975 29.1666 2.8 29.1666H23.2C24.6025 29.1666 25.75 28.0075 25.75 26.5908V5.98477C25.75 4.5681 24.6025 3.40901 23.2 3.40901ZM23.2 26.5908H2.8V9.8484H23.2V26.5908Z" fill="white" fill-opacity="0.4"/>
</svg>
