<svg width="18" height="16" viewBox="0 0 18 16" fill="none" xmlns="http://www.w3.org/2000/svg">
<path d="M3.3488 13.8236V14.7942C3.3488 15.0692 3.25876 15.2995 3.07868 15.4852C2.89797 15.6716 2.67429 15.7648 2.40762 15.7648H1.46645C1.19978 15.7648 0.976406 15.6716 0.796327 15.4852C0.615622 15.2995 0.525269 15.0692 0.525269 14.7942V7.02947L2.50174 1.20594C2.59586 0.914763 2.76464 0.680205 3.00809 0.502263C3.25092 0.324322 3.52135 0.235352 3.81939 0.235352H14.1723C14.4704 0.235352 14.7411 0.324322 14.9846 0.502263C15.2274 0.680205 15.3959 0.914763 15.49 1.20594L17.4664 7.02947V14.7942C17.4664 15.0692 17.3761 15.2995 17.1954 15.4852C17.0153 15.6716 16.7919 15.7648 16.5253 15.7648H15.5841C15.3174 15.7648 15.0941 15.6716 14.914 15.4852C14.7333 15.2995 14.6429 15.0692 14.6429 14.7942V13.8236H3.3488ZM3.16056 5.08829H14.8312L13.8429 2.17653H4.1488L3.16056 5.08829ZM4.76056 10.9118C5.15272 10.9118 5.4859 10.7701 5.76009 10.4867C6.03492 10.2039 6.17233 9.86035 6.17233 9.45594C6.17233 9.05153 6.03492 8.70794 5.76009 8.42517C5.4859 8.14176 5.15272 8.00006 4.76056 8.00006C4.36841 8.00006 4.03523 8.14176 3.76103 8.42517C3.48621 8.70794 3.3488 9.05153 3.3488 9.45594C3.3488 9.86035 3.48621 10.2039 3.76103 10.4867C4.03523 10.7701 4.36841 10.9118 4.76056 10.9118ZM13.2312 10.9118C13.6233 10.9118 13.9565 10.7701 14.2307 10.4867C14.5055 10.2039 14.6429 9.86035 14.6429 9.45594C14.6429 9.05153 14.5055 8.70794 14.2307 8.42517C13.9565 8.14176 13.6233 8.00006 13.2312 8.00006C12.839 8.00006 12.5058 8.14176 12.2316 8.42517C11.9568 8.70794 11.8194 9.05153 11.8194 9.45594C11.8194 9.86035 11.9568 10.2039 12.2316 10.4867C12.5058 10.7701 12.839 10.9118 13.2312 10.9118ZM2.40762 11.8824H15.5841V7.02947H2.40762V11.8824Z" fill="#535353"/>
<path d="M3.3488 13.8236V14.7942C3.3488 15.0692 3.25876 15.2995 3.07868 15.4852C2.89797 15.6716 2.67429 15.7648 2.40762 15.7648H1.46645C1.19978 15.7648 0.976406 15.6716 0.796327 15.4852C0.615622 15.2995 0.525269 15.0692 0.525269 14.7942V7.02947L2.50174 1.20594C2.59586 0.914763 2.76464 0.680205 3.00809 0.502263C3.25092 0.324322 3.52135 0.235352 3.81939 0.235352H14.1723C14.4704 0.235352 14.7411 0.324322 14.9846 0.502263C15.2274 0.680205 15.3959 0.914763 15.49 1.20594L17.4664 7.02947V14.7942C17.4664 15.0692 17.3761 15.2995 17.1954 15.4852C17.0153 15.6716 16.7919 15.7648 16.5253 15.7648H15.5841C15.3174 15.7648 15.0941 15.6716 14.914 15.4852C14.7333 15.2995 14.6429 15.0692 14.6429 14.7942V13.8236H3.3488ZM3.16056 5.08829H14.8312L13.8429 2.17653H4.1488L3.16056 5.08829ZM4.76056 10.9118C5.15272 10.9118 5.4859 10.7701 5.76009 10.4867C6.03492 10.2039 6.17233 9.86035 6.17233 9.45594C6.17233 9.05153 6.03492 8.70794 5.76009 8.42517C5.4859 8.14176 5.15272 8.00006 4.76056 8.00006C4.36841 8.00006 4.03523 8.14176 3.76103 8.42517C3.48621 8.70794 3.3488 9.05153 3.3488 9.45594C3.3488 9.86035 3.48621 10.2039 3.76103 10.4867C4.03523 10.7701 4.36841 10.9118 4.76056 10.9118ZM13.2312 10.9118C13.6233 10.9118 13.9565 10.7701 14.2307 10.4867C14.5055 10.2039 14.6429 9.86035 14.6429 9.45594C14.6429 9.05153 14.5055 8.70794 14.2307 8.42517C13.9565 8.14176 13.6233 8.00006 13.2312 8.00006C12.839 8.00006 12.5058 8.14176 12.2316 8.42517C11.9568 8.70794 11.8194 9.05153 11.8194 9.45594C11.8194 9.86035 11.9568 10.2039 12.2316 10.4867C12.5058 10.7701 12.839 10.9118 13.2312 10.9118ZM2.40762 11.8824H15.5841V7.02947H2.40762V11.8824Z" fill="white" fill-opacity="0.4"/>
</svg>
