<svg width="31" height="46" viewBox="0 0 31 46" fill="none" xmlns="http://www.w3.org/2000/svg">
<g clip-path="url(#clip0_2759_32616)">
<path d="M22.0259 12.7275V44.8255H3.00485C2.50939 44.8255 2.03422 44.6287 1.68388 44.2783C1.33354 43.928 1.13672 43.4528 1.13672 42.9573V12.7275H16.4215" stroke="#9A9A9A" stroke-width="1.88" stroke-linejoin="round"/>
<path d="M25.7607 6.10449L29.6668 12.7279V42.9577C29.6668 43.4531 29.47 43.9283 29.1196 44.2787C28.7693 44.629 28.2941 44.8258 27.7986 44.8258H22.0244" stroke="#9A9A9A" stroke-width="1.88" stroke-linejoin="round"/>
<path d="M1.13672 12.7279L4.87299 6.10449H20.1577" stroke="#9A9A9A" stroke-width="1.88" stroke-linejoin="round"/>
<path d="M4.87109 6.10437V3.21726C4.87109 2.7218 5.06791 2.24662 5.41825 1.89628C5.7686 1.54594 6.24377 1.34912 6.73923 1.34912H23.8921C24.3876 1.34912 24.8627 1.54594 25.2131 1.89628C25.5634 2.24662 25.7602 2.7218 25.7602 3.21726V6.10437L22.024 12.7278" stroke="#9A9A9A" stroke-width="1.88" stroke-linejoin="round"/>
</g>
<defs>
<clipPath id="clip0_2759_32616">
<rect width="30.2298" height="45.1749" fill="white" transform="translate(0.287109 0.5)"/>
</clipPath>
</defs>
</svg>
