<svg width="47" height="48" viewBox="0 0 47 48" fill="none" xmlns="http://www.w3.org/2000/svg">
<g clip-path="url(#clip0_2759_32599)">
<path d="M26.4591 17.9643C29.7623 19.5539 32.5254 21.9196 34.4292 23.7657C34.4292 23.7657 36.4264 21.4084 39.0367 19.9853C41.647 18.5621 44.8262 18.095 44.8262 18.095L40.0999 26.6001L44.8262 35.107C44.8262 35.107 41.6249 34.628 39.0367 33.2168C36.4485 31.8055 34.4292 29.4363 34.4292 29.4363C31.267 32.4933 25.7424 36.9972 19.3143 36.9972C9.21281 36.9972 1.35645 26.6001 1.35645 26.6001C1.35645 26.6001 9.21281 16.2048 19.3143 16.2048C19.9013 16.205 20.4878 16.2413 21.0704 16.3135" stroke="#9A9A9A" stroke-width="1.88" stroke-linecap="round" stroke-linejoin="round"/>
<path d="M14.5332 16.9553C14.5332 16.9553 18.5616 10.3489 27.78 10.3489C26.997 11.4351 26.4716 12.6853 26.2435 14.0047C26.0155 15.3241 26.0908 16.6781 26.4638 17.9641" stroke="#9A9A9A" stroke-width="1.88" stroke-linecap="round" stroke-linejoin="round"/>
<path d="M9.84079 26.6528C10.8725 26.6528 11.7089 25.8164 11.7089 24.7846C11.7089 23.7529 10.8725 22.9165 9.84079 22.9165C8.80905 22.9165 7.97266 23.7529 7.97266 24.7846C7.97266 25.8164 8.80905 26.6528 9.84079 26.6528Z" stroke="#9A9A9A" stroke-width="1.88" stroke-linecap="round" stroke-linejoin="round"/>
<path d="M12.3594 35.4264C12.3594 35.4264 15.615 33.5073 15.615 26.6529C15.615 19.7986 12.3594 17.7759 12.3594 17.7759" stroke="#9A9A9A" stroke-width="1.88" stroke-linecap="round" stroke-linejoin="round"/>
<path d="M15.2988 36.4656C17.1517 39.9217 19.6533 41.7898 23.021 42.6169C23.021 42.6169 23.8328 36.503 26.8694 35.0356" stroke="#9A9A9A" stroke-width="1.88" stroke-linecap="round" stroke-linejoin="round"/>
</g>
<defs>
<clipPath id="clip0_2759_32599">
<rect width="45.1749" height="33.9661" fill="white" transform="translate(0.5 9.5)"/>
</clipPath>
</defs>
</svg>
