<svg width="24" height="24" viewBox="0 0 24 24" fill="none" xmlns="http://www.w3.org/2000/svg">
<path d="M7.00701 21.9971L7.00325 12.8471C6.15315 12.6141 5.44062 12.1477 4.86567 11.4479C4.29005 10.7482 4.00205 9.93162 4.00166 8.99829L3.99878 1.99829L5.99878 1.99747L6.00166 8.99747L7.00166 8.99706L6.99878 1.99706L8.99878 1.99623L9.00166 8.99623L10.0017 8.99582L9.99878 1.99582L11.9988 1.995L12.0017 8.995C12.002 9.92833 11.7147 10.7451 11.1397 11.4454C10.5653 12.1456 9.85315 12.6125 9.00325 12.8462L9.00701 21.9962L7.00701 21.9971ZM17.007 21.9929L17.0037 13.9929L14.0037 13.9942L14.0008 6.99417C14.0003 5.61084 14.4874 4.43164 15.4624 3.45657C16.4366 2.48084 17.6154 1.99268 18.9988 1.99212L19.007 21.9921L17.007 21.9929Z" fill="#535353"/>
<path d="M7.00701 21.9971L7.00325 12.8471C6.15315 12.6141 5.44062 12.1477 4.86567 11.4479C4.29005 10.7482 4.00205 9.93162 4.00166 8.99829L3.99878 1.99829L5.99878 1.99747L6.00166 8.99747L7.00166 8.99706L6.99878 1.99706L8.99878 1.99623L9.00166 8.99623L10.0017 8.99582L9.99878 1.99582L11.9988 1.995L12.0017 8.995C12.002 9.92833 11.7147 10.7451 11.1397 11.4454C10.5653 12.1456 9.85315 12.6125 9.00325 12.8462L9.00701 21.9962L7.00701 21.9971ZM17.007 21.9929L17.0037 13.9929L14.0037 13.9942L14.0008 6.99417C14.0003 5.61084 14.4874 4.43164 15.4624 3.45657C16.4366 2.48084 17.6154 1.99268 18.9988 1.99212L19.007 21.9921L17.007 21.9929Z" fill="white" fill-opacity="0.4"/>
</svg>
