<svg width="149" height="52" viewBox="0 0 149 52" fill="none" xmlns="http://www.w3.org/2000/svg">
    <g clip-path="url(#clip0_2509_32201)">
        <path d="M134.688 0H140.647V1.09481H138.298V7.25581H137.015V1.09481H134.688V0Z" fill="white" />
        <path
            d="M0 51.7642C0.134273 49.4885 0.268546 46.0989 0.268546 43.1341V2.71631H6.19234V23.7185H6.31872C8.42759 19.9844 12.2425 17.5645 17.5502 17.5645C25.7251 17.5645 31.5146 24.4797 31.4435 34.6323C31.4435 46.5877 24.019 52.5254 16.6656 52.5254C11.9266 52.5254 8.08796 50.6584 5.60786 46.2352H5.4025L5.12606 51.7642H0ZM6.19234 38.3664C6.21423 39.1082 6.30681 39.8462 6.46879 40.5699C6.96793 42.605 8.1241 44.412 9.75307 45.703C11.382 46.994 13.3901 47.6948 15.4572 47.6935C21.7206 47.6935 25.4644 42.5091 25.4644 34.8727C25.4644 28.1738 22.0602 22.4364 15.6625 22.4364C13.5407 22.4736 11.4917 23.2273 9.83945 24.5784C8.18724 25.9296 7.02617 27.8009 6.53987 29.8966C6.3355 30.7093 6.21897 31.5423 6.19234 32.3806V38.3664Z"
            fill="white" />
        <path d="M45.03 2.70825H39.0352V51.7641H45.03V2.70825Z" fill="white" />
        <path
            d="M62.3981 21.9638C62.477 24.3678 60.7473 26.2829 57.9907 26.2829C57.4335 26.2896 56.8807 26.1819 56.3655 25.9662C55.8504 25.7505 55.3836 25.4313 54.9932 25.0278C54.6029 24.6243 54.297 24.1449 54.0941 23.6183C53.8912 23.0917 53.7954 22.529 53.8125 21.9638C53.7984 21.3822 53.9009 20.8038 54.1139 20.2636C54.3268 19.7234 54.6457 19.2327 55.0512 18.8214C55.4567 18.41 55.9403 18.0865 56.4728 17.8704C57.0053 17.6544 57.5754 17.5504 58.1487 17.5647C58.7194 17.5449 59.2879 17.6459 59.8181 17.8612C60.3483 18.0764 60.8285 18.4013 61.2282 18.815C61.6278 19.2288 61.9383 19.7225 62.1397 20.2646C62.3411 20.8067 62.4291 21.3854 62.3981 21.9638Z"
            fill="white" />
        <path
            d="M62.3981 42.1809C62.477 44.5848 60.7473 46.4919 57.9907 46.4919C57.4339 46.4998 56.8812 46.3931 56.3661 46.1783C55.851 45.9635 55.3841 45.645 54.9936 45.2422C54.6032 44.8393 54.2972 44.3603 54.0942 43.8342C53.8912 43.308 53.7954 42.7456 53.8125 42.1809C53.7984 41.5993 53.901 41.0208 54.1139 40.4807C54.3268 39.9405 54.6457 39.4498 55.0512 39.0384C55.4567 38.627 55.9403 38.3035 56.4728 38.0875C57.0053 37.8715 57.5754 37.7674 58.1487 37.7817C58.7194 37.762 59.2879 37.8629 59.8181 38.0782C60.3483 38.2935 60.8285 38.6183 61.2282 39.0321C61.6278 39.4459 61.9383 39.9395 62.1397 40.4816C62.3411 41.0237 62.4291 41.6024 62.3981 42.1809Z"
            fill="white" />
        <path
            d="M71.0849 27.3725C71.0849 23.9189 71.0218 21.0903 70.8164 18.3258H76.132L76.4717 23.8548H76.6138C77.6929 21.898 79.2788 20.2777 81.1999 19.169C83.121 18.0604 85.3042 17.5055 87.5136 17.5646C92.071 17.5646 99.1558 20.3291 99.1558 31.7957V51.7642H93.1215V32.4929C93.1215 27.1001 91.1469 22.6128 85.4916 22.6128C83.6734 22.6421 81.9123 23.2618 80.4667 24.3808C79.0211 25.4999 77.9669 27.0595 77.459 28.8309C77.1712 29.7448 77.0325 30.7002 77.0482 31.6595V51.7642H71.0849V27.3725Z"
            fill="white" />
        <path
            d="M114.795 33.6627H114.937C115.727 32.4928 116.904 31.0344 117.859 29.8645L127.535 18.3257H134.754L122.014 32.0761L136.523 51.7642H129.233L117.859 35.7381L114.795 39.1917V51.7642H108.871V2.71631H114.795V33.6627Z"
            fill="white" />
        <path
            d="M141.84 0H143.531L145.446 5.68873H145.467L147.321 0H148.992V7.25581H147.851V1.65295H147.83L145.915 7.25581H144.917L143.001 1.65295H142.981V7.25581H141.84V0Z"
            fill="white" />
    </g>
    <defs>
        <clipPath id="clip0_2509_32201">
            <rect width="149" height="52" fill="white" />
        </clipPath>
    </defs>
</svg>
