<svg width="47" height="48" viewBox="0 0 47 48" fill="none" xmlns="http://www.w3.org/2000/svg">
<path d="M23.6001 43.4877C18.3219 45.6678 13.0848 42.0274 10.5413 35.8695C9.74839 33.9497 9.41811 31.9715 9.49901 30.0919C9.58368 28.1245 8.74952 26.1054 7.30097 24.7714C5.91658 23.4966 4.7541 21.8615 3.9609 19.9411C1.41739 13.7832 3.6343 7.0239 8.91251 4.84375C14.1907 2.6636 20.5315 5.88821 23.075 12.0461C23.8679 13.9659 24.1982 15.944 24.1173 17.8237C24.0326 19.7911 24.8668 21.8102 26.3154 23.1441C27.6997 24.419 28.0489 24.5306 28.8421 26.451" stroke="#9A9A9A" stroke-width="1.88" stroke-linecap="round" stroke-linejoin="round"/>
<path d="M16.5371 34.8459C18.175 36.9945 19.2948 37.9394 21.0166 38.6252" stroke="#9A9A9A" stroke-width="1.88" stroke-linecap="round" stroke-linejoin="round"/>
<path d="M12.7231 9.99784C15.2241 10.5581 16.5765 11.744 17.346 14.1822C18.1349 16.6816 17.5704 17.765 19.2144 21.3228" stroke="#9A9A9A" stroke-width="1.88" stroke-linecap="round" stroke-linejoin="round"/>
<path d="M42.0266 39.2386C45.1342 33.6414 42.8246 29.9776 41.2337 27.9493C40.526 27.0469 39.3784 26.4054 38.2408 26.5511C35.405 26.9144 31.3447 28.321 29.2283 32.1331C26.9016 36.3239 28.2846 40.9713 29.6153 43.4597C29.9398 44.0665 30.5174 44.4959 31.1966 44.6068C34.0989 45.0808 39.0993 44.5113 42.0266 39.2386Z" stroke="#9A9A9A" stroke-width="1.88" stroke-linecap="round" stroke-linejoin="round"/>
<path d="M30.6875 44.1426C31.4156 41.8128 33.7454 36.4542 37.2401 33.6584" stroke="#9A9A9A" stroke-width="1.88" stroke-linecap="round" stroke-linejoin="round"/>
</svg>
