<svg width="24" height="24" viewBox="0 0 24 24" fill="none" xmlns="http://www.w3.org/2000/svg">
<path d="M5.96084 20.4705C5.48633 20.4705 5.07998 20.3047 4.74178 19.9733C4.40416 19.6412 4.23535 19.2422 4.23535 18.7764L4.23535 6.91753C4.23535 6.45165 4.40416 6.05297 4.74178 5.72149C5.07998 5.38944 5.48633 5.22341 5.96084 5.22341L6.82359 5.22341L6.82359 3.5293L8.54908 3.5293L8.54908 5.22341L15.451 5.22341L15.451 3.5293L17.1765 3.5293L17.1765 5.22341L18.0393 5.22341C18.5138 5.22341 18.9201 5.38944 19.2583 5.72149C19.596 6.05297 19.7648 6.45165 19.7648 6.91753L19.7648 18.7764C19.7648 19.2422 19.596 19.6412 19.2583 19.9733C18.9201 20.3047 18.5138 20.4705 18.0393 20.4705L5.96084 20.4705ZM5.96084 18.7764L18.0393 18.7764L18.0393 10.3058L5.96084 10.3058L5.96084 18.7764ZM5.96084 8.61165L18.0393 8.61165L18.0393 6.91753L5.96084 6.91753L5.96084 8.61165ZM12.0001 13.694C11.7556 13.694 11.5509 13.6127 11.3858 13.4501C11.2201 13.288 11.1373 13.0869 11.1373 12.8469C11.1373 12.6069 11.2201 12.4056 11.3858 12.243C11.5509 12.0809 11.7556 11.9999 12.0001 11.9999C12.2445 11.9999 12.4495 12.0809 12.6152 12.243C12.7803 12.4056 12.8628 12.6069 12.8628 12.8469C12.8628 13.0869 12.7803 13.288 12.6152 13.4501C12.4495 13.6127 12.2445 13.694 12.0001 13.694ZM8.54908 13.694C8.30463 13.694 8.09959 13.6127 7.93394 13.4501C7.76887 13.288 7.68633 13.0869 7.68633 12.8469C7.68633 12.6069 7.76887 12.4056 7.93394 12.243C8.09959 12.0809 8.30463 11.9999 8.54908 11.9999C8.79352 11.9999 8.99857 12.0809 9.16421 12.243C9.32929 12.4056 9.41182 12.6069 9.41182 12.8469C9.41182 13.0869 9.32929 13.288 9.16421 13.4501C8.99857 13.6127 8.79352 13.694 8.54908 13.694ZM15.451 13.694C15.2066 13.694 15.0018 13.6127 14.8368 13.4501C14.6711 13.288 14.5883 13.0869 14.5883 12.8469C14.5883 12.6069 14.6711 12.4056 14.8368 12.243C15.0018 12.0809 15.2066 11.9999 15.451 11.9999C15.6955 11.9999 15.9002 12.0809 16.0653 12.243C16.231 12.4056 16.3138 12.6069 16.3138 12.8469C16.3138 13.0869 16.231 13.288 16.0653 13.4501C15.9002 13.6127 15.6955 13.694 15.451 13.694ZM12.0001 17.0822C11.7556 17.0822 11.5509 17.0009 11.3858 16.8383C11.2201 16.6762 11.1373 16.4752 11.1373 16.2352C11.1373 15.9952 11.2201 15.7941 11.3858 15.6321C11.5509 15.4694 11.7556 15.3881 12.0001 15.3881C12.2445 15.3881 12.4495 15.4694 12.6152 15.6321C12.7803 15.7941 12.8628 15.9952 12.8628 16.2352C12.8628 16.4752 12.7803 16.6762 12.6152 16.8383C12.4495 17.0009 12.2445 17.0822 12.0001 17.0822ZM8.54908 17.0822C8.30463 17.0822 8.09959 17.0009 7.93394 16.8383C7.76887 16.6762 7.68633 16.4752 7.68633 16.2352C7.68633 15.9952 7.76887 15.7941 7.93394 15.6321C8.09959 15.4694 8.30463 15.3881 8.54908 15.3881C8.79352 15.3881 8.99857 15.4694 9.16421 15.6321C9.32929 15.7941 9.41182 15.9952 9.41182 16.2352C9.41182 16.4752 9.32929 16.6762 9.16421 16.8383C8.99857 17.0009 8.79352 17.0822 8.54908 17.0822ZM15.451 17.0822C15.2066 17.0822 15.0018 17.0009 14.8368 16.8383C14.6711 16.6762 14.5883 16.4752 14.5883 16.2352C14.5883 15.9952 14.6711 15.7941 14.8368 15.6321C15.0018 15.4694 15.2066 15.3881 15.451 15.3881C15.6955 15.3881 15.9002 15.4694 16.0653 15.6321C16.231 15.7941 16.3138 15.9952 16.3138 16.2352C16.3138 16.4752 16.231 16.6762 16.0653 16.8383C15.9002 17.0009 15.6955 17.0822 15.451 17.0822Z" fill="#535353"/>
<path d="M5.96084 20.4705C5.48633 20.4705 5.07998 20.3047 4.74178 19.9733C4.40416 19.6412 4.23535 19.2422 4.23535 18.7764L4.23535 6.91753C4.23535 6.45165 4.40416 6.05297 4.74178 5.72149C5.07998 5.38944 5.48633 5.22341 5.96084 5.22341L6.82359 5.22341L6.82359 3.5293L8.54908 3.5293L8.54908 5.22341L15.451 5.22341L15.451 3.5293L17.1765 3.5293L17.1765 5.22341L18.0393 5.22341C18.5138 5.22341 18.9201 5.38944 19.2583 5.72149C19.596 6.05297 19.7648 6.45165 19.7648 6.91753L19.7648 18.7764C19.7648 19.2422 19.596 19.6412 19.2583 19.9733C18.9201 20.3047 18.5138 20.4705 18.0393 20.4705L5.96084 20.4705ZM5.96084 18.7764L18.0393 18.7764L18.0393 10.3058L5.96084 10.3058L5.96084 18.7764ZM5.96084 8.61165L18.0393 8.61165L18.0393 6.91753L5.96084 6.91753L5.96084 8.61165ZM12.0001 13.694C11.7556 13.694 11.5509 13.6127 11.3858 13.4501C11.2201 13.288 11.1373 13.0869 11.1373 12.8469C11.1373 12.6069 11.2201 12.4056 11.3858 12.243C11.5509 12.0809 11.7556 11.9999 12.0001 11.9999C12.2445 11.9999 12.4495 12.0809 12.6152 12.243C12.7803 12.4056 12.8628 12.6069 12.8628 12.8469C12.8628 13.0869 12.7803 13.288 12.6152 13.4501C12.4495 13.6127 12.2445 13.694 12.0001 13.694ZM8.54908 13.694C8.30463 13.694 8.09959 13.6127 7.93394 13.4501C7.76887 13.288 7.68633 13.0869 7.68633 12.8469C7.68633 12.6069 7.76887 12.4056 7.93394 12.243C8.09959 12.0809 8.30463 11.9999 8.54908 11.9999C8.79352 11.9999 8.99857 12.0809 9.16421 12.243C9.32929 12.4056 9.41182 12.6069 9.41182 12.8469C9.41182 13.0869 9.32929 13.288 9.16421 13.4501C8.99857 13.6127 8.79352 13.694 8.54908 13.694ZM15.451 13.694C15.2066 13.694 15.0018 13.6127 14.8368 13.4501C14.6711 13.288 14.5883 13.0869 14.5883 12.8469C14.5883 12.6069 14.6711 12.4056 14.8368 12.243C15.0018 12.0809 15.2066 11.9999 15.451 11.9999C15.6955 11.9999 15.9002 12.0809 16.0653 12.243C16.231 12.4056 16.3138 12.6069 16.3138 12.8469C16.3138 13.0869 16.231 13.288 16.0653 13.4501C15.9002 13.6127 15.6955 13.694 15.451 13.694ZM12.0001 17.0822C11.7556 17.0822 11.5509 17.0009 11.3858 16.8383C11.2201 16.6762 11.1373 16.4752 11.1373 16.2352C11.1373 15.9952 11.2201 15.7941 11.3858 15.6321C11.5509 15.4694 11.7556 15.3881 12.0001 15.3881C12.2445 15.3881 12.4495 15.4694 12.6152 15.6321C12.7803 15.7941 12.8628 15.9952 12.8628 16.2352C12.8628 16.4752 12.7803 16.6762 12.6152 16.8383C12.4495 17.0009 12.2445 17.0822 12.0001 17.0822ZM8.54908 17.0822C8.30463 17.0822 8.09959 17.0009 7.93394 16.8383C7.76887 16.6762 7.68633 16.4752 7.68633 16.2352C7.68633 15.9952 7.76887 15.7941 7.93394 15.6321C8.09959 15.4694 8.30463 15.3881 8.54908 15.3881C8.79352 15.3881 8.99857 15.4694 9.16421 15.6321C9.32929 15.7941 9.41182 15.9952 9.41182 16.2352C9.41182 16.4752 9.32929 16.6762 9.16421 16.8383C8.99857 17.0009 8.79352 17.0822 8.54908 17.0822ZM15.451 17.0822C15.2066 17.0822 15.0018 17.0009 14.8368 16.8383C14.6711 16.6762 14.5883 16.4752 14.5883 16.2352C14.5883 15.9952 14.6711 15.7941 14.8368 15.6321C15.0018 15.4694 15.2066 15.3881 15.451 15.3881C15.6955 15.3881 15.9002 15.4694 16.0653 15.6321C16.231 15.7941 16.3138 15.9952 16.3138 16.2352C16.3138 16.4752 16.231 16.6762 16.0653 16.8383C15.9002 17.0009 15.6955 17.0822 15.451 17.0822Z" fill="white" fill-opacity="0.4"/>
</svg>
