<svg width="24" height="24" viewBox="0 0 24 24" fill="none" xmlns="http://www.w3.org/2000/svg">
<path d="M20.998 16.3V14.4L13.4191 9.65V4.425C13.4191 3.6365 12.7844 3 11.998 3C11.2117 3 10.577 3.6365 10.577 4.425V9.65L2.99805 14.4V16.3L10.577 13.925V19.15L8.68226 20.575V22L11.998 21.05L15.3138 22V20.575L13.4191 19.15V13.925L20.998 16.3Z" fill="#535353"/>
<path d="M20.998 16.3V14.4L13.4191 9.65V4.425C13.4191 3.6365 12.7844 3 11.998 3C11.2117 3 10.577 3.6365 10.577 4.425V9.65L2.99805 14.4V16.3L10.577 13.925V19.15L8.68226 20.575V22L11.998 21.05L15.3138 22V20.575L13.4191 19.15V13.925L20.998 16.3Z" fill="white" fill-opacity="0.4"/>
</svg>
