<svg width="39" height="51" viewBox="0 0 39 51" fill="none" xmlns="http://www.w3.org/2000/svg">
    <rect x="1" y="1.2959" width="37" height="48.4083" stroke="#535353" stroke-width="2"
        stroke-linejoin="round" />
    <rect x="1" y="1.2959" width="37" height="48.4083" stroke="white" stroke-opacity="0.2"
        stroke-width="2" stroke-linejoin="round" />
    <path
        d="M27.0536 16.5964C27.0536 20.8981 23.6905 24.6655 19.5419 24.6655C15.3933 24.6655 12.0303 20.8981 12.0303 16.5964C12.0303 12.2948 15.3933 8.80762 19.5419 8.80762C23.6905 8.80762 27.0536 12.2948 27.0536 16.5964Z"
        stroke="#535353" stroke-width="2" stroke-linejoin="round" />
    <path
        d="M27.0536 16.5964C27.0536 20.8981 23.6905 24.6655 19.5419 24.6655C15.3933 24.6655 12.0303 20.8981 12.0303 16.5964C12.0303 12.2948 15.3933 8.80762 19.5419 8.80762C23.6905 8.80762 27.0536 12.2948 27.0536 16.5964Z"
        stroke="white" stroke-opacity="0.2" stroke-width="2" stroke-linejoin="round" />
    <path
        d="M19.5 30.5876C6.0875 30.5876 2.01569 34.8483 1 41.3927V49.7043H38V41.3927C36.549 34.8483 32.9125 30.5876 19.5 30.5876Z"
        stroke="#535353" stroke-width="2" stroke-linejoin="round" />
    <path
        d="M19.5 30.5876C6.0875 30.5876 2.01569 34.8483 1 41.3927V49.7043H38V41.3927C36.549 34.8483 32.9125 30.5876 19.5 30.5876Z"
        stroke="white" stroke-opacity="0.2" stroke-width="2" stroke-linejoin="round" />
</svg>
