<svg width="26" height="17" viewBox="0 0 26 17" fill="none" xmlns="http://www.w3.org/2000/svg">
    <mask id="mask0_2653_12496" style="mask-type:alpha" maskUnits="userSpaceOnUse" x="0" y="0"
        width="26" height="17">
        <path
            d="M1.6281 0.668614C1.6281 0.668614 6.5544 0.156372 12.9179 0.156372C19.2813 0.156372 24.105 0.668614 24.105 0.668614C24.105 0.668614 25.1855 4.35352 25.1855 8.45038C25.1701 11.0185 24.8781 13.5775 24.3146 16.0833C20.5344 16.5301 16.7309 16.7519 12.9244 16.7476C6.58251 16.7476 1.6281 16.2882 1.6281 16.2882C1.6281 16.2882 0.706385 12.5817 0.704224 8.45254C0.724716 5.8319 1.03454 3.2215 1.6281 0.668614Z"
            fill="white" />
    </mask>
    <g mask="url(#mask0_2653_12496)">
        <path d="M0.677525 16.5011V0.506504H24.6417V16.5011H0.677525Z" fill="white" />
        <path d="M0.677525 16.5011V0.506504H24.6417V16.5011H0.677525Z" stroke="#535353"
            stroke-width="0.35505" />
        <path d="M0.677525 16.5011V0.506504H24.6417V16.5011H0.677525Z" stroke="white"
            stroke-width="0.35505" />
        <path
            d="M8.46704 0.328979L11.7304 1.25749L8.46704 2.13639L11.7304 3.10371L8.46704 3.98261L11.7304 4.84318L8.46704 5.75227L11.7304 6.67L8.46704 7.55968L11.7304 8.46878L8.46704 9.44473L11.7304 10.4401L8.46704 11.2813L11.7304 12.0739L8.46704 13.0606L11.7304 14.0172L8.46704 14.8616L11.7304 15.8343L8.46704 16.6787H25.5V0.328979H8.46704Z"
            fill="#8B0D35" />
    </g>
    <path
        d="M12.9083 16.8224H12.9082C6.75204 16.8224 1.84865 16.38 1.69578 16.3662L1.6927 16.3659L1.69244 16.3659L1.62723 16.36L1.61181 16.2982C1.61174 16.2979 1.61161 16.2973 1.61141 16.2965C1.61127 16.2959 1.6111 16.2952 1.61089 16.2944C1.57744 16.156 0.693722 12.5021 0.692663 8.50101C0.691607 4.51256 1.57181 0.91595 1.61055 0.757653C1.61081 0.756576 1.61104 0.755658 1.61122 0.7549L1.62691 0.693364L1.69174 0.686669L1.69174 0.686674L1.69306 0.686528C1.69302 0.686532 1.69303 0.686531 1.69308 0.686526C1.69319 0.686514 1.69352 0.686479 1.69415 0.686412L1.69766 0.686046L1.71022 0.684757L1.75639 0.680124C1.79636 0.676159 1.85451 0.670487 1.92997 0.663355C2.0809 0.649089 2.30103 0.628983 2.58347 0.604996C3.14837 0.557021 3.96242 0.493529 4.97037 0.430195C6.98642 0.303519 9.77748 0.177525 12.9017 0.177525C19.1258 0.177525 23.9261 0.677582 24.0124 0.686572L24.0125 0.686589L24.0132 0.686656L24.0744 0.693247L24.091 0.7509L24.0911 0.751181L24.0913 0.75174C24.1119 0.823665 25.1646 4.48841 25.1647 8.49827C25.1449 11.0547 24.8527 13.6017 24.2931 16.0965L24.2784 16.1558L24.2182 16.1637C24.2179 16.1637 24.2176 16.1638 24.2173 16.1638C20.4639 16.6056 16.6877 16.8256 12.9083 16.8224ZM1.74677 16.0688L1.77558 16.1954L1.90497 16.2063C2.88004 16.2885 7.38712 16.6448 12.9082 16.6448H12.9082C16.6156 16.644 20.32 16.4319 24.0031 16.0095L24.1295 15.995L24.1564 15.8707C24.6806 13.4504 24.9546 10.9829 24.9741 8.50677V8.50537C24.9741 5.00012 24.1677 1.76459 23.9599 0.988284L23.928 0.869364L23.8055 0.857489C22.8676 0.766592 18.4506 0.368154 12.9017 0.368154C7.35285 0.368154 2.86674 0.765503 1.90301 0.857464L1.77594 0.86959L1.74698 0.993914C1.56309 1.78336 0.877896 4.98517 0.877896 8.50753C0.877896 12.0298 1.56418 15.2661 1.74677 16.0688Z"
        fill="white" />
    <path
        d="M12.9083 16.8224H12.9082C6.75204 16.8224 1.84865 16.38 1.69578 16.3662L1.6927 16.3659L1.69244 16.3659L1.62723 16.36L1.61181 16.2982C1.61174 16.2979 1.61161 16.2973 1.61141 16.2965C1.61127 16.2959 1.6111 16.2952 1.61089 16.2944C1.57744 16.156 0.693722 12.5021 0.692663 8.50101C0.691607 4.51256 1.57181 0.91595 1.61055 0.757653C1.61081 0.756576 1.61104 0.755658 1.61122 0.7549L1.62691 0.693364L1.69174 0.686669L1.69174 0.686674L1.69306 0.686528C1.69302 0.686532 1.69303 0.686531 1.69308 0.686526C1.69319 0.686514 1.69352 0.686479 1.69415 0.686412L1.69766 0.686046L1.71022 0.684757L1.75639 0.680124C1.79636 0.676159 1.85451 0.670487 1.92997 0.663355C2.0809 0.649089 2.30103 0.628983 2.58347 0.604996C3.14837 0.557021 3.96242 0.493529 4.97037 0.430195C6.98642 0.303519 9.77748 0.177525 12.9017 0.177525C19.1258 0.177525 23.9261 0.677582 24.0124 0.686572L24.0125 0.686589L24.0132 0.686656L24.0744 0.693247L24.091 0.7509L24.0911 0.751181L24.0913 0.75174C24.1119 0.823665 25.1646 4.48841 25.1647 8.49827C25.1449 11.0547 24.8527 13.6017 24.2931 16.0965L24.2784 16.1558L24.2182 16.1637C24.2179 16.1637 24.2176 16.1638 24.2173 16.1638C20.4639 16.6056 16.6877 16.8256 12.9083 16.8224ZM1.74677 16.0688L1.77558 16.1954L1.90497 16.2063C2.88004 16.2885 7.38712 16.6448 12.9082 16.6448H12.9082C16.6156 16.644 20.32 16.4319 24.0031 16.0095L24.1295 15.995L24.1564 15.8707C24.6806 13.4504 24.9546 10.9829 24.9741 8.50677V8.50537C24.9741 5.00012 24.1677 1.76459 23.9599 0.988284L23.928 0.869364L23.8055 0.857489C22.8676 0.766592 18.4506 0.368154 12.9017 0.368154C7.35285 0.368154 2.86674 0.765503 1.90301 0.857464L1.77594 0.86959L1.74698 0.993914C1.56309 1.78336 0.877896 4.98517 0.877896 8.50753C0.877896 12.0298 1.56418 15.2661 1.74677 16.0688Z"
        stroke="#535353" stroke-width="0.35505" />
    <path
        d="M12.9083 16.8224H12.9082C6.75204 16.8224 1.84865 16.38 1.69578 16.3662L1.6927 16.3659L1.69244 16.3659L1.62723 16.36L1.61181 16.2982C1.61174 16.2979 1.61161 16.2973 1.61141 16.2965C1.61127 16.2959 1.6111 16.2952 1.61089 16.2944C1.57744 16.156 0.693722 12.5021 0.692663 8.50101C0.691607 4.51256 1.57181 0.91595 1.61055 0.757653C1.61081 0.756576 1.61104 0.755658 1.61122 0.7549L1.62691 0.693364L1.69174 0.686669L1.69174 0.686674L1.69306 0.686528C1.69302 0.686532 1.69303 0.686531 1.69308 0.686526C1.69319 0.686514 1.69352 0.686479 1.69415 0.686412L1.69766 0.686046L1.71022 0.684757L1.75639 0.680124C1.79636 0.676159 1.85451 0.670487 1.92997 0.663355C2.0809 0.649089 2.30103 0.628983 2.58347 0.604996C3.14837 0.557021 3.96242 0.493529 4.97037 0.430195C6.98642 0.303519 9.77748 0.177525 12.9017 0.177525C19.1258 0.177525 23.9261 0.677582 24.0124 0.686572L24.0125 0.686589L24.0132 0.686656L24.0744 0.693247L24.091 0.7509L24.0911 0.751181L24.0913 0.75174C24.1119 0.823665 25.1646 4.48841 25.1647 8.49827C25.1449 11.0547 24.8527 13.6017 24.2931 16.0965L24.2784 16.1558L24.2182 16.1637C24.2179 16.1637 24.2176 16.1638 24.2173 16.1638C20.4639 16.6056 16.6877 16.8256 12.9083 16.8224ZM1.74677 16.0688L1.77558 16.1954L1.90497 16.2063C2.88004 16.2885 7.38712 16.6448 12.9082 16.6448H12.9082C16.6156 16.644 20.32 16.4319 24.0031 16.0095L24.1295 15.995L24.1564 15.8707C24.6806 13.4504 24.9546 10.9829 24.9741 8.50677V8.50537C24.9741 5.00012 24.1677 1.76459 23.9599 0.988284L23.928 0.869364L23.8055 0.857489C22.8676 0.766592 18.4506 0.368154 12.9017 0.368154C7.35285 0.368154 2.86674 0.765503 1.90301 0.857464L1.77594 0.86959L1.74698 0.993914C1.56309 1.78336 0.877896 4.98517 0.877896 8.50753C0.877896 12.0298 1.56418 15.2661 1.74677 16.0688Z"
        stroke="white" stroke-width="0.35505" />
</svg>
