<svg width="47" height="48" viewBox="0 0 47 48" fill="none" xmlns="http://www.w3.org/2000/svg">
<path d="M19.8692 26.7717C17.9378 27.9707 14.4609 27.6432 12.7465 27.3838C12.1889 27.2994 11.8511 26.7552 12.0229 26.2181C12.5509 24.5666 13.7998 21.3052 15.7312 20.1062C18.3633 18.4721 21.4234 18.6396 22.5661 20.4802C23.7088 22.3209 22.5014 25.1377 19.8692 26.7717Z" stroke="#9A9A9A" stroke-width="1.88" stroke-linejoin="round"/>
<path d="M43.2114 18.1317C44.4175 20.0587 44.1026 23.5369 43.8495 25.2522C43.7672 25.8101 43.2243 26.1499 42.6865 25.9801C41.033 25.4581 37.7671 24.2211 36.561 22.2941C34.9174 19.668 35.0737 16.6073 36.9102 15.4579C38.7466 14.3085 41.5678 15.5056 43.2114 18.1317Z" stroke="#9A9A9A" stroke-width="1.88" stroke-linejoin="round"/>
<path d="M24.4643 35.3407C25.8752 37.1617 25.9355 40.6794 25.8671 42.429C25.8448 42.9982 25.3324 43.3952 24.7757 43.2746C23.0644 42.9039 19.6733 41.9669 18.2624 40.1458C16.3371 37.6609 16.1647 34.5708 17.8773 33.2439C19.5899 31.917 22.539 32.8558 24.4643 35.3407Z" stroke="#9A9A9A" stroke-width="1.88" stroke-linejoin="round"/>
<path d="M36.0683 38.4282C34.514 39.1815 31.9626 38.7202 30.5659 38.3736C30.0186 38.2378 29.7387 37.6604 29.9713 37.1466C30.5646 35.8356 31.7832 33.5471 33.3376 32.7938C35.5625 31.7155 37.9775 32.1026 38.7316 33.6585C39.4857 35.2144 38.2933 37.3499 36.0683 38.4282Z" stroke="#9A9A9A" stroke-width="1.88" stroke-linejoin="round"/>
<path d="M8.56976 32.5646C10.4845 33.2496 12.1945 35.8296 13.0027 37.2219C13.2858 37.7097 13.0691 38.3154 12.5409 38.5129C11.0329 39.0767 8.07438 39.9865 6.15969 39.3016C3.49938 38.3499 1.88229 36.0703 2.54781 34.2099C3.21333 32.3495 5.90945 31.6129 8.56976 32.5646Z" stroke="#9A9A9A" stroke-width="1.88" stroke-linejoin="round"/>
<path d="M13.0904 13.7375C11.8843 14.7265 9.56974 14.8762 8.22923 14.8723C7.66528 14.8706 7.25748 14.3733 7.36635 13.8199C7.62512 12.5046 8.22546 10.2642 9.43157 9.27527C11.1936 7.83044 13.4411 7.65809 14.4515 8.8903C15.4619 10.1225 14.8525 12.2927 13.0904 13.7375Z" stroke="#9A9A9A" stroke-width="1.88" stroke-linejoin="round"/>
<path d="M2.25695 21.8024C3.11025 20.4968 5.27294 19.6586 6.55273 19.2597C7.09113 19.0919 7.62949 19.4437 7.69189 20.0042C7.8402 21.3365 7.94062 23.6538 7.08731 24.9594C5.84068 26.8668 3.74876 27.7064 2.41489 26.8346C1.08102 25.9628 1.01031 23.7098 2.25695 21.8024Z" stroke="#9A9A9A" stroke-width="1.88" stroke-linejoin="round"/>
<path d="M29.6289 24.6728C31.1801 24.51 33.1957 25.6577 34.3132 26.3981C34.7833 26.7096 34.8505 27.3492 34.4553 27.7515C33.5159 28.7079 31.7825 30.249 30.2313 30.4118C27.9651 30.6497 25.9931 29.5578 25.8267 27.973C25.6604 26.3883 27.3627 24.9107 29.6289 24.6728Z" stroke="#9A9A9A" stroke-width="1.88" stroke-linejoin="round"/>
<path d="M24.8275 15.7688C22.9103 14.5471 21.6999 11.2712 21.1914 9.61358C21.0259 9.07444 21.3701 8.53429 21.9287 8.45649C23.646 8.21731 27.1266 7.9307 29.0437 9.15239C31.6564 10.8173 32.8306 13.6481 31.6663 15.4752C30.502 17.3022 27.4402 17.4337 24.8275 15.7688Z" stroke="#9A9A9A" stroke-width="1.88" stroke-linejoin="round"/>
</svg>
