<svg width="47" height="48" viewBox="0 0 47 48" fill="none" xmlns="http://www.w3.org/2000/svg">
<path d="M26.7646 25.8237C27.4123 26.218 28.5951 27.8456 28.1446 31.2022" stroke="#9A9A9A" stroke-width="1.88" stroke-linecap="round" stroke-linejoin="round"/>
<path d="M20.2354 25.8237C19.5877 26.218 18.4049 27.8456 18.8554 31.2022" stroke="#9A9A9A" stroke-width="1.88" stroke-linecap="round" stroke-linejoin="round"/>
<path d="M10.6302 28.1795L11.5676 28.2497L10.6302 28.1795ZM23.5746 38.7049L23.639 37.7671C23.5961 37.7642 23.5531 37.7642 23.5103 37.7671L23.5746 38.7049ZM36.5191 28.1795L35.5817 28.2497L36.5191 28.1795ZM23.5746 20.1492L23.5566 21.089C23.5686 21.0893 23.5807 21.0893 23.5927 21.089L23.5746 20.1492ZM11.5676 28.2497C11.7757 25.4699 13.3859 23.7144 15.6478 22.6113C17.9486 21.4892 20.8596 21.0875 23.3906 21.0875V19.2075C20.7105 19.2075 17.4807 19.6257 14.8237 20.9215C12.1277 22.2364 9.96329 24.4969 9.69283 28.1093L11.5676 28.2497ZM23.3906 37.7713C20.719 37.7713 17.6021 36.7994 15.2295 35.0812C12.8637 33.3679 11.3605 31.016 11.5676 28.2497L9.69283 28.1093C9.42136 31.7353 11.4279 34.6493 14.1268 36.6038C16.8189 38.5534 20.3215 39.6513 23.3906 39.6513V37.7713ZM23.5103 37.7671C23.4702 37.7699 23.4303 37.7713 23.3906 37.7713V39.6513C23.4737 39.6513 23.5565 39.6484 23.639 39.6427L23.5103 37.7671ZM23.5103 39.6427C23.5928 39.6484 23.6756 39.6513 23.7587 39.6513V37.7713C23.719 37.7713 23.6791 37.7699 23.639 37.7671L23.5103 39.6427ZM23.7587 39.6513C26.8278 39.6513 30.3304 38.5534 33.0225 36.6038C35.7214 34.6493 37.7279 31.7353 37.4565 28.1093L35.5817 28.2497C35.7888 31.016 34.2855 33.3679 31.9198 35.0812C29.5472 36.7994 26.4303 37.7713 23.7587 37.7713V39.6513ZM37.4565 28.1093C37.186 24.4969 35.0216 22.2364 32.3256 20.9215C29.6686 19.6257 26.4388 19.2075 23.7587 19.2075V21.0875C26.2897 21.0875 29.2007 21.4892 31.5015 22.6113C33.7633 23.7144 35.3736 25.4699 35.5817 28.2497L37.4565 28.1093ZM23.7587 19.2075C23.6909 19.2075 23.6235 19.2081 23.5566 19.2094L23.5927 21.089C23.6475 21.088 23.7028 21.0875 23.7587 21.0875V19.2075ZM23.3906 21.0875C23.4465 21.0875 23.5018 21.088 23.5566 21.089L23.5927 19.2094C23.5258 19.2081 23.4584 19.2075 23.3906 19.2075V21.0875Z" fill="#9A9A9A"/>
<path d="M25.8167 20.2386C25.7134 19.6003 25.963 18.3068 27.7879 18.2393C30.0125 18.549 29.5338 20.6047 29.3367 20.8581" stroke="#9A9A9A" stroke-width="1.88" stroke-linecap="round" stroke-linejoin="round"/>
<path d="M21.1833 20.2386C21.2866 19.6003 21.037 18.3068 19.2121 18.2393C16.9875 18.549 17.4662 20.6047 17.6633 20.8581" stroke="#9A9A9A" stroke-width="1.88" stroke-linecap="round" stroke-linejoin="round"/>
<path d="M36.3176 26.3778C37.1436 26.3215 38.9872 25.7358 39.7532 23.8434C40.5192 21.9511 40.4294 20.361 40.3168 19.9574M40.3168 19.9574C38.9651 20.3047 36.3176 20.774 34.0374 18.3241C32.1922 16.3415 31.1374 12.7767 33.6996 9.56646C36.8264 13.4806 37.981 15.0294 38.0937 15.1326L37.3882 6.83496C40.7125 6.83492 43.2187 10.4957 43.4158 13.199C43.6206 16.0075 43.1905 18.3241 40.3168 19.9574Z" stroke="#9A9A9A" stroke-width="1.88" stroke-linecap="round" stroke-linejoin="round"/>
<path d="M10.6824 26.3778C9.85636 26.3215 8.01283 25.7358 7.24681 23.8434C6.48078 21.9511 6.57059 20.361 6.68323 19.9574M6.68323 19.9574C8.0349 20.3047 10.6824 20.774 12.9626 18.3241C14.8078 16.3415 15.8626 12.7767 13.3004 9.56646C10.1736 13.4806 9.01901 15.0294 8.90634 15.1326L9.61184 6.83496C6.28752 6.83492 3.7813 10.4957 3.58419 13.199C3.3794 16.0075 3.80946 18.3241 6.68323 19.9574Z" stroke="#9A9A9A" stroke-width="1.88" stroke-linecap="round" stroke-linejoin="round"/>
<path d="M36.851 30.7511C37.2359 31.1077 38.5463 31.793 40.7088 31.6803C42.8714 31.5677 43.4593 31.0673 44.5669 29.7873M33.4131 35.1955C34.99 35.3082 38.2171 36.6598 38.51 41.1654" stroke="#9A9A9A" stroke-width="1.88" stroke-linecap="round" stroke-linejoin="round"/>
<path d="M10.149 30.7511C9.76412 31.1077 8.45367 31.793 6.29115 31.6803C4.12864 31.5677 3.54071 31.0673 2.43312 29.7873M13.5869 35.1955C12.01 35.3082 8.78286 36.6598 8.49 41.1654" stroke="#9A9A9A" stroke-width="1.88" stroke-linecap="round" stroke-linejoin="round"/>
</svg>
