<svg width="24" height="24" viewBox="0 0 24 24" fill="none" xmlns="http://www.w3.org/2000/svg">
<path fill-rule="evenodd" clip-rule="evenodd" d="M4.49805 4.5H19.498V19.5H17.998V19.1429C17.998 16.6729 14.0005 15.4286 11.998 15.4286C9.99555 15.4286 5.99805 16.6729 5.99805 19.1429V19.5H4.49805V4.5ZM5.99805 21H2.99805V3H20.998V21H17.998H5.99805ZM13.793 13.9523C13.2617 14.3094 12.637 14.5 11.998 14.5C11.1412 14.5 10.3194 14.1576 9.71355 13.5481C9.10766 12.9386 8.76728 12.112 8.76728 11.25C8.76728 10.6072 8.95676 9.97886 9.31176 9.4444C9.66676 8.90994 10.1713 8.49338 10.7617 8.24739C11.352 8.00141 12.0016 7.93705 12.6283 8.06245C13.255 8.18785 13.8307 8.49738 14.2825 8.9519C14.7344 9.40642 15.0421 9.98552 15.1667 10.616C15.2914 11.2464 15.2274 11.8999 14.9829 12.4937C14.7384 13.0876 14.3243 13.5952 13.793 13.9523Z" fill="#535353"/>
<path fill-rule="evenodd" clip-rule="evenodd" d="M4.49805 4.5H19.498V19.5H17.998V19.1429C17.998 16.6729 14.0005 15.4286 11.998 15.4286C9.99555 15.4286 5.99805 16.6729 5.99805 19.1429V19.5H4.49805V4.5ZM5.99805 21H2.99805V3H20.998V21H17.998H5.99805ZM13.793 13.9523C13.2617 14.3094 12.637 14.5 11.998 14.5C11.1412 14.5 10.3194 14.1576 9.71355 13.5481C9.10766 12.9386 8.76728 12.112 8.76728 11.25C8.76728 10.6072 8.95676 9.97886 9.31176 9.4444C9.66676 8.90994 10.1713 8.49338 10.7617 8.24739C11.352 8.00141 12.0016 7.93705 12.6283 8.06245C13.255 8.18785 13.8307 8.49738 14.2825 8.9519C14.7344 9.40642 15.0421 9.98552 15.1667 10.616C15.2914 11.2464 15.2274 11.8999 14.9829 12.4937C14.7384 13.0876 14.3243 13.5952 13.793 13.9523Z" fill="white"/>
</svg>
