<svg width="47" height="48" viewBox="0 0 47 48" fill="none" xmlns="http://www.w3.org/2000/svg">
<path d="M13.2515 27.4037C15.5891 27.9602 17.0329 30.3064 16.4764 32.6439C16.4685 32.677 16.4528 32.7529 16.4443 32.8515C16.4358 32.9513 16.4371 33.0443 16.4471 33.1219C16.4567 33.1961 16.4715 33.2373 16.4804 33.2568C16.4857 33.2685 16.499 33.2976 16.5505 33.3491C16.7606 33.5592 16.9028 33.6558 16.9693 33.6957L17.0601 33.7396C17.0947 33.7497 17.1324 33.7607 17.7271 33.7607C20.13 33.7607 22.078 35.7087 22.078 38.1116C22.078 40.5145 20.13 42.4624 17.7271 42.4624C17.695 42.4624 17.6578 42.4627 17.6161 42.463C17.1192 42.4664 15.9658 42.4744 14.6798 42.1094C13.1962 41.6883 11.7544 40.859 10.3976 39.5023C6.98171 36.0865 7.72643 31.825 8.01126 30.6286C8.56778 28.291 10.9139 26.8472 13.2515 27.4037Z" stroke="#9A9A9A" stroke-width="1.88" stroke-linecap="round" stroke-linejoin="round"/>
<path d="M38.0775 42.0974C35.6907 41.8201 33.9805 39.6603 34.2578 37.2735C34.2618 37.2397 34.2684 37.1625 34.2652 37.0636C34.262 36.9635 34.2497 36.8713 34.2306 36.7954C34.2124 36.7228 34.1927 36.6837 34.1817 36.6654C34.175 36.6543 34.1584 36.6271 34.1011 36.5819C33.8678 36.3981 33.7152 36.3189 33.6444 36.2871L33.5491 36.2542C33.5135 36.2482 33.4748 36.2417 32.8842 36.3118C30.4981 36.5948 28.3342 34.8899 28.0512 32.5037C27.7682 30.1175 29.4731 27.9537 31.8593 27.6707C31.8912 27.6669 31.9281 27.6622 31.9695 27.657C32.4625 27.5951 33.6069 27.4513 34.927 27.6623C36.4499 27.9057 37.9793 28.5594 39.4864 29.7469C43.2809 32.7365 43.0433 37.0561 42.9014 38.2777C42.6241 40.6645 40.4644 42.3747 38.0775 42.0974Z" stroke="#9A9A9A" stroke-width="1.88" stroke-linecap="round" stroke-linejoin="round"/>
<path d="M37.7144 12.912C37.4579 15.3012 35.3132 17.0301 32.9241 16.7737C32.8903 16.7701 32.813 16.7641 32.7141 16.7682C32.6141 16.7723 32.522 16.7854 32.4463 16.8051C32.3738 16.824 32.3349 16.844 32.3166 16.8552C32.3056 16.862 32.2785 16.8788 32.2339 16.9365C32.0521 17.1714 31.9742 17.3247 31.943 17.3957L31.911 17.4913C31.9054 17.527 31.8992 17.5657 31.9744 18.1557C32.2783 20.5393 30.5923 22.7179 28.2087 23.0218C25.8251 23.3257 23.6464 21.6397 23.3426 19.2561C23.3385 19.2242 23.3336 19.1874 23.328 19.146C23.2617 18.6535 23.108 17.5105 23.3074 16.1886C23.5375 14.6636 24.1778 13.1286 25.3521 11.6111C28.3084 7.79063 32.6299 7.99045 33.8527 8.1217C36.2419 8.37814 37.9708 10.5228 37.7144 12.912Z" stroke="#9A9A9A" stroke-width="1.88" stroke-linecap="round" stroke-linejoin="round"/>
<path d="M4.86503 17.6014C4.71114 15.2034 6.53032 13.1347 8.9283 12.9808C8.9622 12.9786 9.03939 12.9713 9.13613 12.9505C9.23402 12.9295 9.32254 12.9009 9.39377 12.8685C9.46197 12.8376 9.49695 12.8113 9.513 12.7971C9.52267 12.7886 9.54652 12.7674 9.58067 12.703C9.71984 12.4405 9.7705 12.2762 9.78915 12.2009L9.80442 12.1013C9.80394 12.0652 9.80343 12.026 9.62891 11.4574C8.92383 9.16026 10.2144 6.72648 12.5116 6.02139C14.8087 5.31631 17.2425 6.60691 17.9476 8.90405C17.957 8.93481 17.9682 8.97024 17.9807 9.01009C18.1298 9.48407 18.4758 10.5843 18.5042 11.9208C18.537 13.4627 18.1673 15.0844 17.2684 16.7795C15.0053 21.0474 10.7129 21.5859 9.4856 21.6646C7.08762 21.8185 5.01892 19.9994 4.86503 17.6014Z" stroke="#9A9A9A" stroke-width="1.88" stroke-linecap="round" stroke-linejoin="round"/>
</svg>
