<svg width="47" height="48" viewBox="0 0 47 48" fill="none" xmlns="http://www.w3.org/2000/svg">
<path d="M32.0225 38.6923V24.9741C31.8083 23.7934 31.5921 21.4499 29.8614 20.456C27.7211 19.2268 25.5546 20.6065 24.7812 21.4633C23.3229 23.0788 23.2631 25.3557 23.7668 27.0352C22.511 27.7718 21.1426 29.2456 21.0931 32.0821C21.0464 34.7614 22.5577 35.9723 23.1028 36.4661C22.8108 37.9474 22.1574 43.8446 27.4064 43.8446C31.3776 43.8446 31.9251 40.4097 32.0225 38.6923Z" stroke="#9A9A9A" stroke-width="1.88" stroke-linecap="round" stroke-linejoin="round"/>
<path d="M32.0225 38.6923V24.9741C32.2367 23.7934 32.4529 21.4499 34.1835 20.456C36.3238 19.2268 38.4903 20.6065 39.2637 21.4633C40.722 23.0788 40.7818 25.3557 40.2782 27.0352C41.5339 27.7718 42.9024 29.2455 42.9518 32.0821C42.9985 34.7614 41.4872 35.9723 40.9421 36.4661C41.2341 37.9474 41.8875 43.8446 36.6385 43.8446C32.6673 43.8446 32.1199 40.4097 32.0225 38.6923Z" stroke="#9A9A9A" stroke-width="1.88" stroke-linecap="round" stroke-linejoin="round"/>
<path d="M27.9297 30.8296C28.2796 31.3367 28.7173 32.7211 27.6691 34.2017" stroke="#9A9A9A" stroke-width="1.88" stroke-linecap="round" stroke-linejoin="round"/>
<path d="M35.8739 35.5634C36.2612 35.7258 37.067 36.4043 37.1923 37.8191" stroke="#9A9A9A" stroke-width="1.88" stroke-linecap="round" stroke-linejoin="round"/>
<path d="M37.1895 29.1687C36.6876 28.8287 35.8921 27.7098 36.0318 26.2875" stroke="#9A9A9A" stroke-width="1.88" stroke-linecap="round" stroke-linejoin="round"/>
<path d="M17.9213 43.6072C11.1949 43.0782 4.67676 35.9571 4.67676 24.4958C4.67676 10.7623 18.5753 4.15552 20.2269 4.15552C21.8784 4.15552 28.9557 6.27174 32.4323 14.0563" stroke="#9A9A9A" stroke-width="1.88" stroke-linecap="round" stroke-linejoin="round"/>
<path d="M20.3037 5.38452C20.3037 8.40734 20.3037 14.7603 20.3037 15.9894" stroke="#9A9A9A" stroke-width="1.88" stroke-linecap="round" stroke-linejoin="round"/>
<path d="M13.2861 27.6724C13.2866 30.7744 14.856 31.1125 15.1226 35.8905" stroke="#9A9A9A" stroke-width="1.88" stroke-linecap="round" stroke-linejoin="round"/>
<path d="M12.6514 17.8928C12.7003 17.2755 13.0798 15.7889 14.2058 14.7815" stroke="#9A9A9A" stroke-width="1.88" stroke-linecap="round" stroke-linejoin="round"/>
</svg>
