<svg width="23" height="16" viewBox="0 0 23 16" fill="white" stroke-width="0.5"
    xmlns="http://www.w3.org/2000/svg">
    <path
        d="M6 16C4.48333 16 3.18767 15.475 2.113 14.425C1.03767 13.375 0.5 12.0917 0.5 10.575C0.5 9.275 0.891667 8.11667 1.675 7.1C2.45833 6.08333 3.48333 5.43333 4.75 5.15C5.16667 3.61667 6 2.375 7.25 1.425C8.5 0.475 9.91667 0 11.5 0C13.45 0 15.104 0.679 16.462 2.037C17.8207 3.39567 18.5 5.05 18.5 7C19.65 7.13333 20.6043 7.629 21.363 8.487C22.121 9.34567 22.5 10.35 22.5 11.5C22.5 12.75 22.0627 13.8127 21.188 14.688C20.3127 15.5627 19.25 16 18 16H12.5C11.95 16 11.4793 15.8043 11.088 15.413C10.696 15.021 10.5 14.55 10.5 14V8.85L8.9 10.4L7.5 9L11.5 5L15.5 9L14.1 10.4L12.5 8.85V14H18C18.7 14 19.2917 13.7583 19.775 13.275C20.2583 12.7917 20.5 12.2 20.5 11.5C20.5 10.8 20.2583 10.2083 19.775 9.725C19.2917 9.24167 18.7 9 18 9H16.5V7C16.5 5.61667 16.0127 4.43733 15.038 3.462C14.0627 2.48733 12.8833 2 11.5 2C10.1167 2 8.93767 2.48733 7.963 3.462C6.98767 4.43733 6.5 5.61667 6.5 7H6C5.03333 7 4.20833 7.34167 3.525 8.025C2.84167 8.70833 2.5 9.53333 2.5 10.5C2.5 11.4667 2.84167 12.2917 3.525 12.975C4.20833 13.6583 5.03333 14 6 14H8.5V16H6Z"
    />
    <path
        d="M6 16C4.48333 16 3.18767 15.475 2.113 14.425C1.03767 13.375 0.5 12.0917 0.5 10.575C0.5 9.275 0.891667 8.11667 1.675 7.1C2.45833 6.08333 3.48333 5.43333 4.75 5.15C5.16667 3.61667 6 2.375 7.25 1.425C8.5 0.475 9.91667 0 11.5 0C13.45 0 15.104 0.679 16.462 2.037C17.8207 3.39567 18.5 5.05 18.5 7C19.65 7.13333 20.6043 7.629 21.363 8.487C22.121 9.34567 22.5 10.35 22.5 11.5C22.5 12.75 22.0627 13.8127 21.188 14.688C20.3127 15.5627 19.25 16 18 16H12.5C11.95 16 11.4793 15.8043 11.088 15.413C10.696 15.021 10.5 14.55 10.5 14V8.85L8.9 10.4L7.5 9L11.5 5L15.5 9L14.1 10.4L12.5 8.85V14H18C18.7 14 19.2917 13.7583 19.775 13.275C20.2583 12.7917 20.5 12.2 20.5 11.5C20.5 10.8 20.2583 10.2083 19.775 9.725C19.2917 9.24167 18.7 9 18 9H16.5V7C16.5 5.61667 16.0127 4.43733 15.038 3.462C14.0627 2.48733 12.8833 2 11.5 2C10.1167 2 8.93767 2.48733 7.963 3.462C6.98767 4.43733 6.5 5.61667 6.5 7H6C5.03333 7 4.20833 7.34167 3.525 8.025C2.84167 8.70833 2.5 9.53333 2.5 10.5C2.5 11.4667 2.84167 12.2917 3.525 12.975C4.20833 13.6583 5.03333 14 6 14H8.5V16H6Z"
    />
</svg>
