<svg width="24" height="24" viewBox="0 0 24 24" fill="none" xmlns="http://www.w3.org/2000/svg">
<path d="M11.9971 6.34246C8.14681 6.34405 4.85965 8.68705 3.52881 11.993C4.86237 15.2979 8.15146 17.6382 12.0017 17.6366C15.852 17.635 19.1392 15.292 20.47 11.986C19.1364 8.68117 15.8473 6.34087 11.9971 6.34246ZM12.001 15.7542C9.8756 15.7551 8.14999 14.0692 8.14913 11.9911C8.14828 9.91299 9.8725 8.22569 11.9979 8.22481C14.1232 8.22394 15.8488 9.90982 15.8497 11.9879C15.8505 14.066 14.1263 15.7533 12.001 15.7542ZM11.9985 9.73069C10.7202 9.73122 9.68873 10.7406 9.68924 11.9905C9.68976 13.2404 10.722 14.2489 12.0003 14.2483C13.2786 14.2478 14.3101 13.2384 14.3096 11.9886C14.309 10.7387 13.2768 9.73017 11.9985 9.73069Z" fill="#535353"/>
<path d="M11.9971 6.34246C8.14681 6.34405 4.85965 8.68705 3.52881 11.993C4.86237 15.2979 8.15146 17.6382 12.0017 17.6366C15.852 17.635 19.1392 15.292 20.47 11.986C19.1364 8.68117 15.8473 6.34087 11.9971 6.34246ZM12.001 15.7542C9.8756 15.7551 8.14999 14.0692 8.14913 11.9911C8.14828 9.91299 9.8725 8.22569 11.9979 8.22481C14.1232 8.22394 15.8488 9.90982 15.8497 11.9879C15.8505 14.066 14.1263 15.7533 12.001 15.7542ZM11.9985 9.73069C10.7202 9.73122 9.68873 10.7406 9.68924 11.9905C9.68976 13.2404 10.722 14.2489 12.0003 14.2483C13.2786 14.2478 14.3101 13.2384 14.3096 11.9886C14.309 10.7387 13.2768 9.73017 11.9985 9.73069Z" fill="white" fill-opacity="0.4"/>
</svg>
